<?xml version="1.0" encoding="UTF-8"?>
<svg version="1.1" xmlns="http://www.w3.org/2000/svg" width="1024" height="331">
<path d="M0 0 C337.92 0 675.84 0 1024 0 C1024 109.23 1024 218.46 1024 331 C686.08 331 348.16 331 0 331 C0 221.77 0 112.54 0 0 Z " fill="#242A2E" transform="translate(0,0)"/>
<path d="M0 0 C1.52362469 -0.00763146 3.04724556 -0.01606064 4.57086182 -0.02522278 C8.69317217 -0.04708294 12.81540837 -0.05595571 16.93777013 -0.06104922 C19.52026881 -0.06470418 22.10274842 -0.07095024 24.68523979 -0.07805061 C33.71513589 -0.10251988 42.7449748 -0.11559064 51.77490234 -0.11914062 C60.15802417 -0.12276944 68.54077846 -0.15262426 76.92378813 -0.19454521 C84.14706659 -0.22938481 91.37022411 -0.24469145 98.59358591 -0.24538666 C102.89605668 -0.24617511 107.19815291 -0.25471235 111.50053596 -0.28338432 C115.55471093 -0.30979931 119.60820715 -0.31164178 123.66242981 -0.29572868 C125.13809137 -0.29393236 126.6137941 -0.30043759 128.08936882 -0.31654739 C141.49925871 -0.45385048 154.41989094 1.82368716 164.76928711 11.02124023 C175.45775831 22.38988688 178.53678218 35.93832346 178.43530273 51.15209961 C178.44231201 52.46935532 178.44932129 53.78661102 178.45654297 55.14378357 C178.47458225 58.71624061 178.46779051 62.28822907 178.45502663 65.86069298 C178.44479701 69.62487289 178.45431962 73.38901651 178.46057129 77.15319824 C178.46781904 83.47077531 178.45833602 89.78816445 178.43920898 96.10571289 C178.41744566 103.37732332 178.42449908 110.6484849 178.44651461 117.92008448 C178.4647511 124.19824351 178.46718692 130.47626856 178.45675993 136.75444555 C178.45057 140.48884261 178.44956348 144.22302971 178.46290588 147.95741272 C178.47676133 152.12543695 178.45748111 156.292705 178.43530273 160.46069336 C178.44339966 161.67458237 178.45149658 162.88847137 178.45983887 164.1391449 C178.32374453 178.03686724 174.19891366 190.89081468 164.54272461 201.11889648 C152.99529592 211.85775249 140.96039181 212.7210443 125.86883545 212.53369522 C122.99184128 212.50113308 120.1156948 212.49274037 117.23852539 212.49142456 C109.0654439 212.48584572 100.89306265 212.45671038 92.72045898 212.36499023 C87.70293159 212.31039931 82.68690037 212.29993396 77.66912842 212.31713486 C75.76820016 212.31520124 73.8672103 212.29689045 71.96661377 212.26132584 C59.65743501 211.77356324 59.65743501 211.77356324 49.15161133 217.39404297 C47.70272457 218.99832745 46.28852545 220.63489818 44.91772461 222.30639648 C43.62484324 223.59804989 42.3195958 224.87748637 41.00024414 226.14208984 C39.764567 227.39106254 38.53136383 228.64248732 37.30053711 229.89624023 C35.93868471 231.2707148 34.57670194 232.64506022 33.21459961 234.01928711 C31.11276253 236.14608721 29.01259934 238.27449527 26.91479492 240.40527344 C24.86023716 242.48996155 22.79955757 244.56844054 20.73803711 246.64624023 C20.11196564 247.28577133 19.48589417 247.92530243 18.84085083 248.58421326 C18.25278656 249.17565628 17.66472229 249.7670993 17.05883789 250.37646484 C16.29133713 251.15515175 16.29133713 251.15515175 15.5083313 251.9495697 C12.80796783 254.25304642 10.48398696 255.22205954 6.98022461 255.74389648 C2.71939474 255.1352065 1.53408704 253.68737794 -1.08227539 250.30639648 C-1.75007897 247.35813715 -1.66700902 244.51581414 -1.57055664 241.50561523 C-1.5634819 240.66924026 -1.55640717 239.8328653 -1.54911804 238.97114563 C-1.52122524 236.31113597 -1.4585002 233.6532651 -1.39477539 230.99389648 C-1.36968573 229.18598427 -1.34687373 227.37803892 -1.32641602 225.57006836 C-1.27141581 221.14802576 -1.18518182 216.72757318 -1.08227539 212.30639648 C-2.8262561 212.33467529 -2.8262561 212.33467529 -4.60546875 212.36352539 C-6.14851462 212.37877404 -7.6915651 212.39356084 -9.23461914 212.40795898 C-9.99883179 212.42157471 -10.76304443 212.43519043 -11.55041504 212.44921875 C-23.38542012 212.53195877 -31.36413626 206.81983636 -39.76977539 198.99389648 C-49.69530308 188.68400896 -51.53533837 176.17701925 -51.48632812 162.40234375 C-51.49204273 161.02956592 -51.49901117 159.65679284 -51.50712585 158.2840271 C-51.52495177 154.58351597 -51.52390906 150.88324333 -51.51818347 147.1827023 C-51.51507635 144.08153064 -51.52120086 140.9804038 -51.52722222 137.87923855 C-51.541231 130.55763746 -51.53973654 123.23615315 -51.52832031 115.91455078 C-51.5168413 108.38679716 -51.53091928 100.85939992 -51.55771679 93.33169323 C-51.57993902 86.84387457 -51.58649658 80.35616724 -51.58064038 73.86831325 C-51.5772853 70.00425512 -51.57958859 66.14042536 -51.5968914 62.27639961 C-51.61246329 58.64083522 -51.60829319 55.00579514 -51.58958626 51.3702507 C-51.58419859 49.41748464 -51.59833598 47.46469445 -51.61328125 45.51197815 C-51.50666935 32.64299961 -47.58746455 22.96865201 -39.08227539 13.30639648 C-36.24839204 10.68188939 -33.29895859 8.4391973 -30.08227539 6.30639648 C-29.47383789 5.89647461 -28.86540039 5.48655273 -28.23852539 5.06420898 C-19.40246743 -0.43824529 -10.05115925 0.00319728 0 0 Z " fill="#204872" transform="translate(147.082275390625,41.693603515625)"/>
<path d="M0 0 C0.86109375 0.32742187 1.7221875 0.65484375 2.609375 0.9921875 C15.94055858 6.80865932 26.08746727 18.99089348 31.8125 32.0625 C38.01467879 48.09839647 37.2043743 63.41990059 30.4453125 79.1640625 C28.69770944 82.59314311 26.59212275 85.41377346 24.0390625 88.28125 C22.83878394 89.92604029 22.83878394 89.92604029 23.01953125 91.828125 C24.48325918 95.07048647 26.7490583 97.58970115 29.0625 100.25 C29.53494141 100.80429688 30.00738281 101.35859375 30.49414062 101.9296875 C31.65658967 103.291749 32.82747855 104.64659956 34 106 C32.5328827 109.55736507 30.6293581 111.44195167 27.625 113.8125 C26.46871094 114.75029297 26.46871094 114.75029297 25.2890625 115.70703125 C23 117 23 117 21.0390625 117.0703125 C17.89058048 115.41766102 15.93113124 112.7920843 13.75 110.0625 C13.06164062 109.23588867 13.06164062 109.23588867 12.359375 108.39257812 C9 104.27834356 9 104.27834356 9 102 C8.40574219 102.32613281 7.81148437 102.65226562 7.19921875 102.98828125 C-5.95041196 109.92097924 -20.84871137 112.76349367 -35.5 108.875 C-45.16689923 105.29957152 -52.71675063 99.14791873 -60 92 C-60.639375 91.38511719 -61.27875 90.77023438 -61.9375 90.13671875 C-71.58596641 80.07905399 -76.9311497 65.73236741 -77.375 51.9375 C-76.85914087 36.02840437 -69.24005012 21.9351663 -58 11 C-57.48308594 10.45085937 -56.96617187 9.90171875 -56.43359375 9.3359375 C-52.52618262 5.52034543 -47.81847984 3.15674487 -43 0.6875 C-42.32316162 0.3373584 -41.64632324 -0.0127832 -40.94897461 -0.37353516 C-28.1315743 -6.68033706 -12.93697546 -5.11383062 0 0 Z " fill="#E5ECEF" transform="translate(708,106)"/>
<path d="M0 0 C5.94 0 11.88 0 18 0 C18 36.3 18 72.6 18 110 C12.06 110 6.12 110 0 110 C-0.33 106.7 -0.66 103.4 -1 100 C-1.58007812 100.54269531 -2.16015625 101.08539063 -2.7578125 101.64453125 C-11.97887438 110.08956317 -19.22486436 112.43543034 -31.69140625 112.265625 C-42.6082778 111.38918195 -49.86313824 104.86142963 -56.85546875 96.8828125 C-63.69575903 88.20155521 -64.52281083 81.08537391 -64.5 70.1875 C-64.54253906 68.35735352 -64.54253906 68.35735352 -64.5859375 66.49023438 C-64.6080257 56.21370057 -61.85013278 48.29826693 -54.8671875 40.6640625 C-45.65935972 32.4579231 -36.92932986 29.54344135 -24.7578125 29.7578125 C-15.34867842 30.36422239 -8.85952499 33.51548321 -2 40 C-1.67 40.66 -1.34 41.32 -1 42 C-0.67 28.14 -0.34 14.28 0 0 Z " fill="#E6ECF0" transform="translate(516,103)"/>
<path d="M0 0 C4.95520521 2.57289501 8.49116963 5.98233926 11 11 C11.51289363 17.15472353 10.79878421 20.07210406 7 25 C4.59889598 27.67305527 2.0631291 30.20019517 -0.48730469 32.73022461 C-1.23581696 33.48063522 -1.98432922 34.23104584 -2.75552368 35.00419617 C-5.22278672 37.47515323 -7.69715982 39.93885195 -10.171875 42.40234375 C-11.89613733 44.12541299 -13.62002908 45.84885314 -15.34356689 47.57264709 C-18.95512471 51.18264221 -22.57001201 54.78925812 -26.1875 58.39331055 C-30.8102718 62.99912494 -35.42646633 67.61146185 -40.0403862 72.22614193 C-43.60040947 75.78589237 -47.16304035 79.34302339 -50.72653961 82.8992939 C-52.42867442 84.59825961 -54.13021577 86.29782012 -55.83113861 87.99799919 C-58.21663547 90.38131192 -60.60540687 92.76129382 -62.99511719 95.14038086 C-63.68942841 95.83514526 -64.38373962 96.52990967 -65.09909058 97.24572754 C-80.18370547 112.23308826 -80.18370547 112.23308826 -86.1875 112.5625 C-90.09284403 112.41629534 -91.89917772 111.65877635 -94.75048828 109.00463867 C-95.44088196 108.36722748 -96.13127563 107.72981628 -96.84259033 107.0730896 C-97.55453552 106.38897003 -98.26648071 105.70485046 -99 105 C-99.6992157 104.32933502 -100.3984314 103.65867004 -101.11883545 102.96768188 C-103.36473695 100.78302993 -105.5875851 98.5771448 -107.8046875 96.36328125 C-108.60987823 95.56141891 -109.41506897 94.75955658 -110.24465942 93.93339539 C-111.93166406 92.25141995 -113.61734673 90.56811765 -115.30175781 88.88354492 C-117.8832638 86.30424326 -120.47268704 83.73306685 -123.0625 81.16210938 C-124.70621783 79.52132272 -126.34946389 77.8800633 -127.9921875 76.23828125 C-128.76609833 75.47155594 -129.54000916 74.70483063 -130.33737183 73.91487122 C-131.40956467 72.83806343 -131.40956467 72.83806343 -132.50341797 71.73950195 C-133.13214813 71.11219681 -133.7608783 70.48489166 -134.40866089 69.83857727 C-137.6257302 66.12168848 -138.4653251 62.98883699 -138.30859375 58.01953125 C-137.57105223 53.19283547 -134.37982701 50.09032779 -130.75 47.125 C-126.6478489 44.41072872 -123.85160839 44.30691309 -119 45 C-114.56116303 47.59774328 -111.12511606 50.66791145 -107.55859375 54.3515625 C-106.55284718 55.37771474 -105.54698437 56.40375306 -104.54101562 57.4296875 C-102.98286856 59.03139673 -101.42731678 60.63553469 -99.87426758 62.2421875 C-98.35887491 63.80597166 -96.83428772 65.36033683 -95.30859375 66.9140625 C-94.40939209 67.8417041 -93.51019043 68.7693457 -92.58374023 69.72509766 C-90.04429708 71.96099781 -88.12805981 72.85255965 -85 74 C-77.84344664 67.73117422 -71.0615289 61.17810543 -64.37364197 54.4182415 C-62.67809357 52.70501339 -60.97877764 50.99560133 -59.27844238 49.28712463 C-54.45306813 44.43752073 -49.63370568 39.58197251 -44.81835938 34.72241211 C-41.85438924 31.73174644 -38.88563435 28.74590125 -35.91383362 25.76301765 C-34.78597496 24.62894424 -33.66001824 23.49297607 -32.53599548 22.35510063 C-30.97574118 20.77574602 -29.40952997 19.20254108 -27.84179688 17.63061523 C-26.95262573 16.73398666 -26.06345459 15.83735809 -25.14733887 14.91355896 C-23 13 -23 13 -21 13 C-20.67 12.01 -20.34 11.02 -20 10 C-18.29296875 8.28125 -18.29296875 8.28125 -16.1875 6.5 C-15.50042969 5.9121875 -14.81335938 5.324375 -14.10546875 4.71875 C-13.41066406 4.1515625 -12.71585937 3.584375 -12 3 C-11.00033203 2.16275391 -11.00033203 2.16275391 -9.98046875 1.30859375 C-6.82420814 -0.77690389 -3.60104913 -0.62566491 0 0 Z " fill="#E6EDF1" transform="translate(279,89)"/>
<path d="M0 0 C8.27080088 6.76548129 12.5919009 17.01243275 14.6875 27.3125 C15.58890894 37.42010185 14.30012672 49.08724655 9.6875 58.3125 C5.47300481 56.72832805 2.99315524 53.55940989 0.125 50.25 C-3.44590201 45.91735102 -3.44590201 45.91735102 -8.3125 43.3125 C-10.66219072 44.51423774 -10.66219072 44.51423774 -13 46.25 C-13.80824219 46.81589844 -14.61648438 47.38179687 -15.44921875 47.96484375 C-16.06410156 48.40957031 -16.67898438 48.85429687 -17.3125 49.3125 C-15.88625835 53.5680967 -13.78092611 56.41509541 -10.875 59.8125 C-8.0012835 63.18331738 -5.48885509 66.44964466 -3.3125 70.3125 C-12.29694634 75.11813409 -22.47049938 75.73934938 -32.421875 73.6640625 C-42.74597699 70.2518593 -49.22281628 64.28645965 -54.90234375 55.15625 C-60.29270745 44.28593206 -60.56883672 27.44317973 -56.75 15.9375 C-52.30845313 6.35556148 -45.6364571 -0.45957901 -35.97265625 -4.71875 C-23.55866722 -9.06465215 -10.83474353 -7.36680478 0 0 Z " fill="#24292D" transform="translate(709.3125,125.6875)"/>
<path d="M0 0 C22.77 0 45.54 0 69 0 C69 5.28 69 10.56 69 16 C52.5 16 36 16 19 16 C19 26.23 19 36.46 19 47 C34.51 47 50.02 47 66 47 C66 52.28 66 57.56 66 63 C50.49 63 34.98 63 19 63 C19 73.56 19 84.12 19 95 C35.5 95 52 95 69 95 C69 99.95 69 104.9 69 110 C46.23 110 23.46 110 0 110 C0 73.7 0 37.4 0 0 Z " fill="#E4EBEE" transform="translate(372,103)"/>
<path d="M0 0 C5.61 0 11.22 0 17 0 C17.01401855 2.25457031 17.01401855 2.25457031 17.02832031 4.5546875 C17.06831798 10.15345439 17.13410507 15.75167746 17.20751953 21.35009766 C17.23567231 23.76897168 17.25691502 26.18793673 17.27099609 28.60693359 C17.29250367 32.09259449 17.33919693 35.57716752 17.390625 39.0625 C17.39185364 40.13677246 17.39308228 41.21104492 17.39434814 42.31787109 C17.51762206 48.69739042 18.26916522 53.69905831 22 59 C26.84148305 63.60531315 30.88238275 64.3570043 37.359375 64.28125 C41.47556723 63.84283899 44.68552514 62.46195368 48 60 C51.43957899 55.56183356 52.11002387 51.36433664 52.20532227 45.86425781 C52.22526749 44.84350159 52.24521271 43.82274536 52.26576233 42.77105713 C52.29083107 41.12868073 52.29083107 41.12868073 52.31640625 39.453125 C52.33718735 38.3267865 52.35796844 37.200448 52.37937927 36.03997803 C52.44474333 32.44338051 52.50369885 28.84671023 52.5625 25.25 C52.6056977 22.8111904 52.6493124 20.37238816 52.69335938 17.93359375 C52.80041134 11.95580366 52.90171604 5.97794042 53 0 C58.94 0 64.88 0 71 0 C71 25.74 71 51.48 71 78 C65.39 78 59.78 78 54 78 C53.505 74.04 53.505 74.04 53 70 C52.53851562 70.47050781 52.07703125 70.94101563 51.6015625 71.42578125 C44.97599947 77.75018232 38.67167362 80.02226701 29.5625 80.4375 C21.03941508 80.14858187 12.96929532 77.31586118 6.85087585 71.23748779 C0.10443608 63.08184807 -0.7097449 53.52760295 -0.48828125 43.359375 C-0.48120651 42.11117981 -0.47413177 40.86298462 -0.46684265 39.57696533 C-0.43910427 35.63400477 -0.37640022 31.69252324 -0.3125 27.75 C-0.28453329 25.05862988 -0.26423813 22.36722016 -0.24414062 19.67578125 C-0.18934434 13.11662735 -0.10321195 6.55856345 0 0 Z " fill="#E4EBEF" transform="translate(548,135)"/>
<path d="M0 0 C5.28 0 10.56 0 16 0 C16.0093457 1.49781006 16.01869141 2.99562012 16.02832031 4.53881836 C16.06835479 10.1245641 16.13415184 15.70976687 16.20751953 21.29516602 C16.23565108 23.70720415 16.25690426 26.11933313 16.27099609 28.53149414 C16.29253327 32.00974782 16.33924134 35.48691812 16.390625 38.96484375 C16.39185364 40.03395493 16.39308228 41.1030661 16.39434814 42.20457458 C16.52189889 48.80493479 17.37805555 54.3568341 21 60 C25.8529408 64.06062393 30.01399851 64.64578097 36.28125 64.37890625 C41.16889777 63.69772545 45.20022704 62.25494809 48.34375 58.31640625 C51.18342567 53.6005163 52.10776414 49.45535933 52.20532227 44.04785156 C52.22526749 43.06713684 52.24521271 42.08642212 52.26576233 41.07598877 C52.29083107 39.4992337 52.29083107 39.4992337 52.31640625 37.890625 C52.33718735 36.80867859 52.35796844 35.72673218 52.37937927 34.61199951 C52.44472931 31.15806387 52.50369229 27.70405263 52.5625 24.25 C52.60569904 21.90754429 52.64931378 19.5650962 52.69335938 17.22265625 C52.80039587 11.48184818 52.90170448 5.74096412 53 0 C58.61 0 64.22 0 70 0 C70 25.74 70 51.48 70 78 C64.39 78 58.78 78 53 78 C52.505 74.04 52.505 74.04 52 70 C51.53851562 70.47050781 51.07703125 70.94101563 50.6015625 71.42578125 C44.11876215 77.61390885 37.87760917 80.02848414 28.9375 80.375 C19.78079472 80.05875586 12.09987703 76.48513297 5.8125 69.8125 C-0.4285114 61.94391834 -0.41798191 53.34373005 -0.29296875 43.65234375 C-0.28872391 42.39990372 -0.28447906 41.14746368 -0.28010559 39.85707092 C-0.26623684 36.5575067 -0.2393727 33.25839767 -0.20599365 29.95898438 C-0.17508207 26.58013424 -0.16155563 23.20121697 -0.14648438 19.82226562 C-0.11352886 13.21464551 -0.06180482 6.6074107 0 0 Z " fill="#E4ECEF" transform="translate(756,135)"/>
<path d="M0 0 C21.12 0 42.24 0 64 0 C64 15.7281399 64 15.7281399 59.8125 20.375 C59.3683374 20.8913501 58.9241748 21.4077002 58.46655273 21.93969727 C57.50671357 23.05535555 56.53366401 24.15976221 55.54882812 25.25341797 C52.77109527 28.38581091 50.18641502 31.67633733 47.5625 34.9375 C46.45897894 36.28958967 45.35481354 37.64115372 44.25 38.9921875 C40.69800864 43.35394832 37.22327906 47.77438475 33.77758789 52.22045898 C30.62790527 56.2663374 27.34827592 60.09367809 24 64 C43.8 64.495 43.8 64.495 64 65 C64 69.29 64 73.58 64 78 C42.88 78 21.76 78 0 78 C0 64.65392781 0 64.65392781 4.16430664 60.17163086 C4.74946045 59.59936768 5.33461426 59.02710449 5.9375 58.4375 C7.14448531 57.15743327 8.35020998 55.87617672 9.5546875 54.59375 C10.14733398 53.98144531 10.73998047 53.36914062 11.35058594 52.73828125 C13.55923918 50.41063011 15.56318612 47.94586428 17.5625 45.4375 C19.96703661 42.46381619 22.39802763 39.52259609 24.90234375 36.6328125 C25.41531006 36.04056885 25.92827637 35.4483252 26.45678711 34.83813477 C27.43452696 33.71313842 28.41543051 32.59087739 29.40063477 31.47241211 C34.28516819 25.85135557 38.48550589 20.01932548 43 14 C28.81 14 14.62 14 0 14 C0 9.38 0 4.76 0 0 Z " fill="#E7EEF1" transform="translate(871,135)"/>
<path d="M0 0 C6.48407004 3.70518288 9.86828525 10.10586682 12.046875 17.0625 C13.20069815 25.39887223 12.45863375 32.89703348 7.79296875 39.9609375 C4.32940021 44.4343203 0.57370995 47.61479285 -4.953125 49.0625 C-12.6188102 49.95249193 -20.03740006 50.46370288 -26.37890625 45.5390625 C-33.32437976 39.02444963 -35.97415548 32.66418603 -36.515625 23.25 C-36.2727829 15.32727649 -33.27748817 8.98128572 -28.18359375 2.9765625 C-20.83545329 -3.19761469 -8.77020098 -2.78419079 0 0 Z " fill="#24292D" transform="translate(504.953125,149.9375)"/>
<path d="M0 0 C5.94 0 11.88 0 18 0 C18 25.74 18 51.48 18 78 C12.06 78 6.12 78 0 78 C0 52.26 0 26.52 0 0 Z " fill="#E3EBEF" transform="translate(842,135)"/>
<path d="M0 0 C1.57394531 -0.05607422 1.57394531 -0.05607422 3.1796875 -0.11328125 C6.125 0.3125 6.125 0.3125 8.47265625 1.9921875 C11.00601624 5.54967174 10.73332321 8.42993903 10.5859375 12.67578125 C10.125 15.3125 10.125 15.3125 7.8125 18.4375 C3.5651319 21.40078007 0.23827971 21.83249455 -4.875 21.3125 C-8.35384669 19.30577106 -10.5812659 17.19370231 -11.875 13.3125 C-12.26387761 9.11262182 -12.33408323 7.01642762 -10 3.4375 C-6.69293298 0.13043298 -4.58919846 0.10659507 0 0 Z " fill="#E5EBEF" transform="translate(851.875,101.6875)"/>
<path d="M0 0 C5.94 0 11.88 0 18 0 C18 36.3 18 72.6 18 110 C17.67 110 17.34 110 17 110 C16.67 79.64 16.34 49.28 16 18 C15.67 18 15.34 18 15 18 C15 13.05 15 8.1 15 3 C11.04 2.67 7.08 2.34 3 2 C3 15.53 3 29.06 3 43 C1.02 43.495 1.02 43.495 -1 44 C-0.67 29.48 -0.34 14.96 0 0 Z " fill="#D4DDE1" transform="translate(516,103)"/>
<path d="M0 0 C5.94 0 11.88 0 18 0 C18 25.74 18 51.48 18 78 C17.67 78 17.34 78 17 78 C16.67 52.92 16.34 27.84 16 2 C11.38 2 6.76 2 2 2 C2.01047363 3.47388184 2.02094727 4.94776367 2.03173828 6.46630859 C2.06785791 11.91924626 2.09087115 17.37217329 2.10986328 22.82519531 C2.11993924 25.18816911 2.13360029 27.55113039 2.15087891 29.9140625 C2.17505724 33.30471888 2.18646699 36.69521084 2.1953125 40.0859375 C2.20563507 41.14743011 2.21595764 42.20892273 2.22659302 43.30258179 C2.22674408 44.28344757 2.22689514 45.26431335 2.22705078 46.27490234 C2.231492 47.14094086 2.23593323 48.00697937 2.24050903 48.89926147 C2 51 2 51 0 53 C0 35.51 0 18.02 0 0 Z " fill="#D0D5D8" transform="translate(601,135)"/>
<path d="M0 0 C5.28 0 10.56 0 16 0 C16.33 18.15 16.66 36.3 17 55 C15 53 15 53 14.75949097 50.82333374 C14.76393219 49.92176544 14.76837341 49.02019714 14.77294922 48.09130859 C14.77317581 46.55994766 14.77317581 46.55994766 14.77340698 44.99765015 C14.78372955 43.89240997 14.79405212 42.7871698 14.8046875 41.6484375 C14.8075174 40.5192691 14.81034729 39.39010071 14.81326294 38.22671509 C14.82448538 34.60937029 14.84959378 30.99227034 14.875 27.375 C14.88502713 24.9270869 14.89415344 22.47916993 14.90234375 20.03125 C14.92443147 14.02073855 14.95897546 8.01041083 15 2 C10.71 2 6.42 2 2 2 C2.33 21.8 2.66 41.6 3 62 C0.56096188 59.56096188 0.04265851 57.89560144 -0.12025452 54.47529602 C-0.11803391 53.46935898 -0.11581329 52.46342194 -0.11352539 51.42700195 C-0.11344986 50.28604568 -0.11337433 49.14508942 -0.11329651 47.96955872 C-0.10813522 46.73823715 -0.10297394 45.50691559 -0.09765625 44.23828125 C-0.0962413 42.97735153 -0.09482635 41.71642181 -0.09336853 40.4172821 C-0.08871575 37.06848291 -0.07973342 33.71975189 -0.06866455 30.37097168 C-0.05842687 26.95239857 -0.05386586 23.53381841 -0.04882812 20.11523438 C-0.03779099 13.41013496 -0.0205222 6.70507683 0 0 Z " fill="#E0E3E5" transform="translate(756,135)"/>
<path d="M0 0 C5.94 0 11.88 0 18 0 C18 25.08 18 50.16 18 76 C17.67 76 17.34 76 17 76 C16.67 51.58 16.34 27.16 16 2 C11.38 2.33 6.76 2.66 2 3 C1.67 27.75 1.34 52.5 1 78 C0.67 78 0.34 78 0 78 C0 52.26 0 26.52 0 0 Z " fill="#E2E9ED" transform="translate(842,135)"/>
<path d="M0 0 C0.33 0 0.66 0 1 0 C1 24.09 1 48.18 1 73 C5.62 73 10.24 73 15 73 C15 50.56 15 28.12 15 5 C15.33 5 15.66 5 16 5 C16.33 28.1 16.66 51.2 17 75 C11.39 75 5.78 75 0 75 C0 50.25 0 25.5 0 0 Z " fill="#FBFDFE" transform="translate(843,138)"/>
<path d="M0 0 C16.5 0 33 0 50 0 C50 0.33 50 0.66 50 1 C34.16 1 18.32 1 2 1 C2 10.24 2 19.48 2 29 C16.85 29 31.7 29 47 29 C47 29.33 47 29.66 47 30 C31.49 30.33 15.98 30.66 0 31 C0 20.77 0 10.54 0 0 Z " fill="#0A0E11" transform="translate(391,119)"/>
<path d="M0 0 C21.12 0 42.24 0 64 0 C64 0.33 64 0.66 64 1 C47.665 1.495 47.665 1.495 31 2 C31 2.33 31 2.66 31 3 C21.76 3 12.52 3 3 3 C3 5.64 3 8.28 3 11 C5.97 11 8.94 11 12 11 C11.01 12.485 11.01 12.485 10 14 C7.6171875 14.29296875 7.6171875 14.29296875 4.875 14.1875 C2.461875 14.0946875 2.461875 14.0946875 0 14 C0 9.38 0 4.76 0 0 Z " fill="#CCD3D7" transform="translate(871,135)"/>
<path d="M0 0 C5.61 0 11.22 0 17 0 C16.67 15.51 16.34 31.02 16 47 C15.67 47 15.34 47 15 47 C15 32.15 15 17.3 15 2 C10.71 2 6.42 2 2 2 C1.67 20.15 1.34 38.3 1 57 C0.67 57 0.34 57 0 57 C0 38.19 0 19.38 0 0 Z " fill="#BCC3C8" transform="translate(548,135)"/>
<path d="M0 0 C1.95793736 2.93690603 2.70418027 5.08709385 3.6875 8.4375 C9.06581298 24.72946999 19.84754954 36.9646096 35 45 C40.45817206 47.47266184 45.78404262 49.04800191 51.765625 49.31640625 C52.65507813 49.35830078 53.54453125 49.40019531 54.4609375 49.44335938 C55.84152344 49.50233398 55.84152344 49.50233398 57.25 49.5625 C58.18585937 49.60568359 59.12171875 49.64886719 60.0859375 49.69335938 C62.39048641 49.7991805 64.69513839 49.90126557 67 50 C67 50.33 67 50.66 67 51 C46.73345138 51.6972744 32.43012754 49.33138004 17 35 C7.57277019 24.96247856 0.702629 14.05258008 0 0 Z " fill="#101215" transform="translate(631,166)"/>
<path d="M0 0 C0.33 0 0.66 0 1 0 C1 24.75 1 49.5 1 75 C-4.61 75 -10.22 75 -16 75 C-15.67 71.7 -15.34 68.4 -15 65 C-14.67 65 -14.34 65 -14 65 C-14 67.64 -14 70.28 -14 73 C-9.38 73 -4.76 73 0 73 C0 48.91 0 24.82 0 0 Z " fill="#FBFDFD" transform="translate(825,138)"/>
<path d="M0 0 C0.33 0 0.66 0 1 0 C1 22.77 1 45.54 1 69 C-4.28 69 -9.56 69 -15 69 C-14.67 65.7 -14.34 62.4 -14 59 C-13.67 59 -13.34 59 -13 59 C-13 61.64 -13 64.28 -13 67 C-8.71 67 -4.42 67 0 67 C0 44.89 0 22.78 0 0 Z " fill="#FAFCFD" transform="translate(617,144)"/>
<path d="M0 0 C4.75118185 3.96006147 9.22271937 8.09525826 13.5625 12.5 C14.15748291 13.09876953 14.75246582 13.69753906 15.36547852 14.31445312 C17.87870448 16.84383389 20.38585554 19.37920415 22.89355469 21.9140625 C24.73942372 23.7781505 26.58839297 25.63912479 28.4375 27.5 C28.99187744 28.06267578 29.54625488 28.62535156 30.11743164 29.20507812 C33.90758918 33.01852999 37.87026465 36.55790783 42 40 C41.34 40.66 40.68 41.32 40 42 C34.77879175 36.82506492 29.56294591 31.64478951 24.35394287 26.45756721 C21.93520784 24.0492841 19.51464152 21.64290257 17.08984375 19.24072266 C14.30439514 16.48109509 11.52699084 13.713452 8.75 10.9453125 C7.43757324 9.6483696 7.43757324 9.6483696 6.09863281 8.32522583 C5.29780273 7.52454681 4.49697266 6.7238678 3.671875 5.89892578 C2.9612793 5.1927713 2.25068359 4.48661682 1.51855469 3.75906372 C0 2 0 2 0 0 Z " fill="#F3F7F8" transform="translate(145,157)"/>
<path d="M0 0 C0.66 0.33 1.32 0.66 2 1 C1.67 1.515625 1.34 2.03125 1 2.5625 C-0.44281575 5.64025424 -0.44281575 5.64025424 0 12 C12.87 12 25.74 12 39 12 C39 12.33 39 12.66 39 13 C37.79875488 13.02505615 36.59750977 13.0501123 35.35986328 13.07592773 C30.91313571 13.16993144 26.46656693 13.27016917 22.02001953 13.37231445 C20.09362496 13.41569001 18.16719129 13.45736314 16.24072266 13.49731445 C13.47546592 13.55495362 10.7104065 13.61866616 7.9453125 13.68359375 C7.0806839 13.70030624 6.2160553 13.71701874 5.32522583 13.73423767 C1.02604148 13.72159896 1.02604148 13.72159896 -3 15 C-3.08107583 13.06318839 -3.13922475 11.1254066 -3.1875 9.1875 C-3.22230469 8.10855469 -3.25710938 7.02960938 -3.29296875 5.91796875 C-3 3 -3 3 -1.48828125 1.11328125 C-0.99714844 0.74589844 -0.50601563 0.37851563 0 0 Z " fill="#DCE3E7" transform="translate(874,198)"/>
<path d="M0 0 C0.33 0 0.66 0 1 0 C1.01030746 0.62782883 1.02061493 1.25565765 1.03123474 1.9025116 C1.13945945 8.44007444 1.25404439 14.97750391 1.37231445 21.51489258 C1.41561209 23.9543173 1.45729083 26.39377132 1.49731445 28.83325195 C1.55514208 32.34074734 1.61880085 35.84809597 1.68359375 39.35546875 C1.70030624 40.44522507 1.71701874 41.53498138 1.73423767 42.65776062 C1.75418289 43.67844131 1.77412811 44.69912201 1.79467773 45.75073242 C1.81022202 46.64563889 1.8257663 47.54054535 1.84178162 48.46257019 C2.09489421 52.52186739 3.06309976 56.3815257 4.0625 60.3125 C4.371875 61.529375 4.68125 62.74625 5 64 C1.53641106 61.00871864 0.16086005 57.82407049 -0.24050903 53.27275085 C-0.23606781 52.28901993 -0.23162659 51.305289 -0.22705078 50.29174805 C-0.22689972 49.17096359 -0.22674866 48.05017914 -0.22659302 46.89543152 C-0.21627045 45.6963063 -0.20594788 44.49718109 -0.1953125 43.26171875 C-0.1924826 42.02581497 -0.18965271 40.78991119 -0.18673706 39.51655579 C-0.17745218 36.24335003 -0.15950633 32.97034356 -0.1373291 29.69720459 C-0.11680817 26.35219152 -0.10789268 23.00716974 -0.09765625 19.66210938 C-0.07561795 13.10799526 -0.04215661 6.55401392 0 0 Z " fill="#FDFEFE" transform="translate(549,139)"/>
<path d="M0 0 C0 2.97 0 5.94 0 9 C5.61 9 11.22 9 17 9 C17 9.66 17 10.32 17 11 C14.22754986 11.13487595 11.46162912 11.23400807 8.6875 11.3125 C7.50897461 11.3753418 7.50897461 11.3753418 6.30664062 11.43945312 C4.09663625 11.48647449 2.15851089 11.48367587 0 11 C-2.04296875 8.48046875 -2.04296875 8.48046875 -3 6 C-3.99 6.33 -4.98 6.66 -6 7 C-2.86206897 0 -2.86206897 0 0 0 Z " fill="#171A1E" transform="translate(602,204)"/>
<path d="M0 0 C13.2 0 26.4 0 40 0 C39.67 1.65 39.34 3.3 39 5 C38.01 4.34 37.02 3.68 36 3 C36 2.34 36 1.68 36 1 C24.12 1 12.24 1 0 1 C0 0.67 0 0.34 0 0 Z " fill="#2E3338" transform="translate(871,151)"/>
<path d="M0 0 C6.93 0.33 13.86 0.66 21 1 C20.67 1.66 20.34 2.32 20 3 C14.40191786 4.86602738 8.32737362 4.85898614 2.875 2.5 C1.451875 1.7575 1.451875 1.7575 0 1 C0 0.67 0 0.34 0 0 Z " fill="#DDE1E4" transform="translate(481,198)"/>
<path d="M0 0 C-1.65863505 4.32504836 -4.871041 7.09418825 -8.125 10.25 C-8.68832031 10.80429688 -9.25164062 11.35859375 -9.83203125 11.9296875 C-11.21686028 13.29104485 -12.60783204 14.64614859 -14 16 C-14.33 15.01 -14.66 14.02 -15 13 C-12.88094537 10.82722286 -10.75527122 8.66173092 -8.625 6.5 C-8.02171875 5.87996094 -7.4184375 5.25992188 -6.796875 4.62109375 C-6.21679688 4.03457031 -5.63671875 3.44804687 -5.0390625 2.84375 C-4.50490723 2.29912109 -3.97075195 1.75449219 -3.42041016 1.19335938 C-2 0 -2 0 0 0 Z " fill="#CED7E0" transform="translate(222,176)"/>
<path d="M0 0 C5.94 0 11.88 0 18 0 C17.67 2.64 17.34 5.28 17 8 C16.67 8 16.34 8 16 8 C16 6.02 16 4.04 16 2 C11.05 2.33 6.1 2.66 1 3 C0.67 2.01 0.34 1.02 0 0 Z " fill="#DCE0E3" transform="translate(842,135)"/>
<path d="M0 0 C0.66 0.33 1.32 0.66 2 1 C2.86140345 14.97387825 2.86140345 14.97387825 -0.5 18.875 C-1.325 19.57625 -2.15 20.2775 -3 21 C-3 18 -3 18 -1 15 C-0.70008931 12.41114829 -0.49134775 9.90850918 -0.375 7.3125 C-0.33632813 6.61060547 -0.29765625 5.90871094 -0.2578125 5.18554688 C-0.1637666 3.45745345 -0.0808032 1.72876325 0 0 Z " fill="#161A1E" transform="translate(935,134)"/>
<path d="M0 0 C1.98 0 3.96 0 6 0 C3.94766315 2.2477975 2.99332739 3.0022242 0 4 C-1.72795352 4.06802967 -3.45835365 4.08495645 -5.1875 4.0625 C-6.08855469 4.05347656 -6.98960937 4.04445312 -7.91796875 4.03515625 C-8.60503906 4.02355469 -9.29210937 4.01195312 -10 4 C-10.33 3.34 -10.66 2.68 -11 2 C-7.37 2 -3.74 2 0 2 C0 1.34 0 0.68 0 0 Z " fill="#191D21" transform="translate(588,196)"/>
<path d="M0 0 C0.66 0.99 1.32 1.98 2 3 C-0.64 5.64 -3.28 8.28 -6 11 C-6.66 10.67 -7.32 10.34 -8 10 C-6.05463044 6.30379783 -4.74284906 4.74666289 -1 3 C-0.67 2.01 -0.34 1.02 0 0 Z " fill="#DCE5EA" transform="translate(259,99)"/>
<path d="M0 0 C3.7952131 1.49097658 5.61042731 3.75700849 8 7 C5 7 5 7 2.8125 5 C2.214375 4.34 1.61625 3.68 1 3 C0.05125 3.515625 -0.8975 4.03125 -1.875 4.5625 C-2.90625 5.036875 -3.9375 5.51125 -5 6 C-5.66 5.67 -6.32 5.34 -7 5 C-4.69 3.35 -2.38 1.7 0 0 Z " fill="#F1F5F5" transform="translate(701,168)"/>
<path d="M0 0 C0.33 0 0.66 0 1 0 C1.06316406 0.6290625 1.12632812 1.258125 1.19140625 1.90625 C2.22061635 9.09988691 4.79117851 13.01401579 10 18 C9.34 18.66 8.68 19.32 8 20 C6.85204994 18.5433323 5.70670581 17.08461063 4.5625 15.625 C3.92441406 14.81289062 3.28632813 14.00078125 2.62890625 13.1640625 C0.23312313 9.98117557 -0.11860166 8.30211614 -0.0625 4.375 C-0.05347656 3.55773437 -0.04445312 2.74046875 -0.03515625 1.8984375 C-0.02355469 1.27195313 -0.01195312 0.64546875 0 0 Z " fill="#143263" transform="translate(140,145)"/>
<path d="M0 0 C2.91517292 1.07401108 4.77810176 1.77810176 7 4 C9.06874034 4.6425235 9.06874034 4.6425235 11 5 C11.33 6.98 11.66 8.96 12 11 C7.81576108 7.49102731 3.80411834 3.91939465 0 0 Z " fill="#191C20" transform="translate(504,135)"/>
<path d="M0 0 C0.33 0 0.66 0 1 0 C1 3.3 1 6.6 1 10 C0.67 10 0.34 10 0 10 C-0.33 8.35 -0.66 6.7 -1 5 C-2.65 5.66 -4.3 6.32 -6 7 C-5.02433888 5.83040013 -4.044375 4.66438823 -3.0625 3.5 C-2.51722656 2.8503125 -1.97195313 2.200625 -1.41015625 1.53125 C-0.71212891 0.77328125 -0.71212891 0.77328125 0 0 Z " fill="#131519" transform="translate(808,204)"/>
<path d="M0 0 C2.52480693 2.52480693 2.55738633 4.13823034 3.125 7.625 C3.29257812 8.62789062 3.46015625 9.63078125 3.6328125 10.6640625 C3.75398437 11.43492187 3.87515625 12.20578125 4 13 C1.36156162 10.49203385 0.01499155 8.55247044 -1 5 C-0.625 2.1875 -0.625 2.1875 0 0 Z " fill="#F3F6F8" transform="translate(550,190)"/>
<path d="M0 0 C1 3 1 3 0.3125 5 C-1.17477001 7.26631621 -2.75769234 8.50512823 -5 10 C-5.66 9.34 -6.32 8.68 -7 8 C-6.21625 7.236875 -5.4325 6.47375 -4.625 5.6875 C-1.92742283 3.09108195 -1.92742283 3.09108195 0 0 Z " fill="#EEF2F4" transform="translate(600,189)"/>
<path d="M0 0 C3.7952131 1.49097658 5.61042731 3.75700849 8 7 C5 7 5 7 2.3125 4.625 C0 2 0 2 0 0 Z " fill="#2C4B75" transform="translate(183,154)"/>
<path d="M0 0 C0.99 0.33 1.98 0.66 3 1 C0.03 3.64 -2.94 6.28 -6 9 C-6 6 -6 6 -4.6875 4.39453125 C-4.130625 3.87246094 -3.57375 3.35039063 -3 2.8125 C-2.443125 2.28269531 -1.88625 1.75289063 -1.3125 1.20703125 C-0.6628125 0.60955078 -0.6628125 0.60955078 0 0 Z " fill="#F7F9FB" transform="translate(653,114)"/>
<path d="M0 0 C3.94139078 1.66751148 6.7892812 4.22710649 10 7 C9.01 7.495 9.01 7.495 8 8 C1.42857143 4 1.42857143 4 0 0 Z " fill="#F0F2F4" transform="translate(566,192)"/>
<path d="M0 0 C-1.39332574 3.36720387 -2.9789286 4.9859524 -6 7 C-6 4 -6 4 -4.125 1.8125 C-2 0 -2 0 0 0 Z " fill="#D5DDE5" transform="translate(222,176)"/>
<path d="M0 0 C0.99 0.99 1.98 1.98 3 3 C-0.4019487 5.09350689 -3.05272412 5.17942163 -7 5 C-4.35261084 3.5393715 -3.10551666 3 0 3 C0 2.01 0 1.02 0 0 Z " fill="#070A0C" transform="translate(703,193)"/>
</svg>
