<?xml version="1.0" encoding="UTF-8"?>
<svg version="1.1" xmlns="http://www.w3.org/2000/svg" width="500" height="500">
<path d="M0 0 C1.86537886 -0.00435289 3.73075593 -0.00953796 5.59613037 -0.01548767 C10.63952468 -0.02882579 15.68284382 -0.02946221 20.72625232 -0.02692437 C24.94581069 -0.02585129 29.16535407 -0.03074657 33.38490921 -0.03552979 C43.34336896 -0.04660671 53.30179098 -0.04707239 63.26025391 -0.04101562 C73.51450532 -0.03497465 83.76861957 -0.04729421 94.02284759 -0.06858569 C102.84608692 -0.08622849 111.66928268 -0.09219889 120.49253899 -0.08894795 C125.75383206 -0.08713947 131.01502724 -0.08972792 136.27630424 -0.10366249 C141.22500065 -0.1162801 146.17348382 -0.11425961 151.12217712 -0.1012516 C152.93169287 -0.09889495 154.74122382 -0.1015876 156.55072212 -0.10987473 C175.76553381 -0.1914873 191.32605458 3.82673468 205.81079102 17.35668945 C207.50610352 19.2746582 207.50610352 19.2746582 207.50610352 21.2746582 C208.16610352 21.2746582 208.82610352 21.2746582 209.50610352 21.2746582 C211.09204102 23.4777832 211.09204102 23.4777832 212.88110352 26.5246582 C213.46633789 27.49918945 214.05157227 28.4737207 214.65454102 29.4777832 C220.26548297 40.38064677 221.08753115 50.70926523 221.02368164 62.71044922 C221.02911264 64.4381977 221.03624075 66.16594155 221.04492188 67.89367676 C221.06304067 72.55276424 221.05613574 77.21149446 221.04340553 81.87058759 C221.0332198 86.76480339 221.04268645 91.65899029 221.0489502 96.5532074 C221.05620977 104.76827439 221.04668269 112.98319714 221.02758789 121.19824219 C221.00581517 130.67438833 221.01288027 140.15019022 221.03489351 149.62632805 C221.05308715 157.78721376 221.05558672 165.94799627 221.04513884 174.10889572 C221.03892659 178.97223195 221.03800563 183.83540674 221.05128479 188.69873238 C221.06290082 193.27163057 221.05471328 197.84408786 221.03170776 202.41693878 C221.02645156 204.08776813 221.02788105 205.75863505 221.03675842 207.42944908 C221.09558852 219.63372625 219.17146114 229.36276706 212.88110352 239.9621582 C212.29071289 240.97665039 211.70032227 241.99114258 211.09204102 243.03637695 C210.56868164 243.77500977 210.04532227 244.51364258 209.50610352 245.2746582 C208.84610352 245.2746582 208.18610352 245.2746582 207.50610352 245.2746582 C207.25344727 245.85602539 207.00079102 246.43739258 206.74047852 247.03637695 C201.4366407 256.65377908 189.05090028 262.11293718 179.07641602 265.4074707 C171.80438261 267.17376328 164.72609902 267.42394215 157.28222656 267.43237305 C156.29101303 267.43745377 155.2997995 267.44253448 154.27854919 267.44776917 C152.13969983 267.45841891 150.0008397 267.46705994 147.86197472 267.4738884 C144.47895449 267.48573177 141.09605881 267.50519385 137.71308899 267.52700806 C128.09945784 267.58847523 118.48584412 267.64281193 108.87207031 267.67602539 C102.9818544 267.69691846 97.09187366 267.73216422 91.20179176 267.77678299 C88.95747446 267.79097042 86.71311564 267.79967158 84.46875572 267.80283737 C81.3399203 267.80772241 78.21171589 267.83081344 75.08300781 267.8581543 C73.6873761 267.8536451 73.6873761 267.8536451 72.2635498 267.8490448 C71.41274338 267.86013779 70.56193695 267.87123077 69.68534851 267.88265991 C68.94632136 267.88597006 68.20729422 267.8892802 67.44587231 267.89269066 C64.98678305 268.37691965 64.17524976 269.46879918 62.50610352 271.2746582 C61.84610352 271.2746582 61.18610352 271.2746582 60.50610352 271.2746582 C60.50610352 271.9346582 60.50610352 272.5946582 60.50610352 273.2746582 C59.84610352 273.2746582 59.18610352 273.2746582 58.50610352 273.2746582 C58.50610352 273.9346582 58.50610352 274.5946582 58.50610352 275.2746582 C57.84610352 275.2746582 57.18610352 275.2746582 56.50610352 275.2746582 C56.50610352 275.9346582 56.50610352 276.5946582 56.50610352 277.2746582 C55.84610352 277.2746582 55.18610352 277.2746582 54.50610352 277.2746582 C54.50610352 277.9346582 54.50610352 278.5946582 54.50610352 279.2746582 C53.84610352 279.2746582 53.18610352 279.2746582 52.50610352 279.2746582 C52.50610352 279.9346582 52.50610352 280.5946582 52.50610352 281.2746582 C51.21972656 282.53540039 51.21972656 282.53540039 49.33032227 284.0715332 C45.42909988 287.3877011 41.8071856 290.90011334 38.21313477 294.5402832 C37.65512177 295.10396606 37.09710876 295.66764893 36.52218628 296.24841309 C34.19464915 298.60296025 31.87126817 300.96152844 29.55224609 303.32446289 C27.83946713 305.0674996 26.12047066 306.8042131 24.40063477 308.5402832 C23.88281937 309.07155823 23.36500397 309.60283325 22.83149719 310.15020752 C18.20706832 314.80624378 14.18373044 317.8658239 7.50610352 318.2746582 C4.13110352 317.3371582 4.13110352 317.3371582 1.50610352 316.2746582 C1.50610352 315.6146582 1.50610352 314.9546582 1.50610352 314.2746582 C0.88735352 314.1096582 0.26860352 313.9446582 -0.36889648 313.7746582 C-3.16754217 311.7991436 -3.3749045 309.79089868 -4.11004639 306.55297852 C-4.73790955 302.82633259 -4.73988362 299.17004886 -4.68920898 295.3996582 C-4.68637909 294.58972412 -4.68354919 293.77979004 -4.68063354 292.9453125 C-4.66954364 290.38826987 -4.64446101 287.83159286 -4.61889648 285.2746582 C-4.60885218 283.52856955 -4.59972888 281.78247535 -4.59155273 280.03637695 C-4.56964115 275.78233236 -4.5351903 271.52855701 -4.49389648 267.2746582 C-5.10701187 267.27810242 -5.72012726 267.28154663 -6.3518219 267.28509521 C-7.15868942 267.28777405 -7.96555695 267.29045288 -8.796875 267.29321289 C-9.59561539 267.2966571 -10.39435577 267.30010132 -11.21730042 267.3036499 C-25.43621157 267.12257676 -40.0956421 260.97969563 -50.49389648 251.2746582 C-50.49389648 250.6146582 -50.49389648 249.9546582 -50.49389648 249.2746582 C-51.15389648 249.2746582 -51.81389648 249.2746582 -52.49389648 249.2746582 C-52.49389648 248.6146582 -52.49389648 247.9546582 -52.49389648 247.2746582 C-53.15389648 247.2746582 -53.81389648 247.2746582 -54.49389648 247.2746582 C-55.48389648 244.7996582 -55.48389648 244.7996582 -56.49389648 242.2746582 C-57.15389648 242.2746582 -57.81389648 242.2746582 -58.49389648 242.2746582 C-59.62817045 239.9454539 -60.75130032 237.61185335 -61.86889648 235.2746582 C-62.18600586 234.62625977 -62.50311523 233.97786133 -62.82983398 233.30981445 C-63.29389648 232.33334961 -63.29389648 232.33334961 -63.76733398 231.3371582 C-64.19151611 230.45737305 -64.19151611 230.45737305 -64.62426758 229.55981445 C-67.9662495 220.77796414 -67.77811074 212.18270945 -67.75268555 202.91967773 C-67.75539854 201.25986579 -67.75896121 199.60005506 -67.76330566 197.94024658 C-67.77239663 193.44842637 -67.76889864 188.9566984 -67.76254749 184.46487665 C-67.75746874 179.75302038 -67.76218431 175.04117178 -67.76531982 170.32931519 C-67.76895472 162.41573679 -67.76417361 154.50219576 -67.75463867 146.58862305 C-67.74376257 137.45685804 -67.74727549 128.32518241 -67.75829148 119.19341958 C-67.76738692 111.33753292 -67.76863839 103.48167307 -67.76341414 95.62578285 C-67.76030587 90.94075487 -67.75985342 86.2557688 -67.76648712 81.57074356 C-67.77229256 77.16299793 -67.76820549 72.75536672 -67.75669861 68.34763336 C-67.75406874 66.73604649 -67.75478829 65.12444989 -67.75922394 63.51286697 C-67.8029955 45.98451267 -64.58048581 32.70860258 -53.75561523 18.5324707 C-52.49389648 17.2746582 -52.49389648 17.2746582 -50.49389648 17.2746582 C-50.49389648 16.6146582 -50.49389648 15.9546582 -50.49389648 15.2746582 C-36.42892677 1.17334489 -18.6508148 -0.02881922 0 0 Z " fill="#12467C" transform="translate(173.493896484375,116.725341796875)"/>
<path d="M0 0 C3.0625 1.4375 3.0625 1.4375 5 3 C5 3.66 5 4.32 5 5 C5.66 5 6.32 5 7 5 C7 5.66 7 6.32 7 7 C7.66 7 8.32 7 9 7 C12.62299183 11.15578475 13.6792246 14.33194172 13.3671875 19.84765625 C12.1990392 26.69499363 5.88567635 31.24663779 1.14453125 35.828125 C-1.03434936 37.8101889 -1.03434936 37.8101889 -2 40 C-2.66 40 -3.32 40 -4 40 C-4 40.66 -4 41.32 -4 42 C-4.66 42 -5.32 42 -6 42 C-6.66 43.32 -7.32 44.64 -8 46 C-8.66 46 -9.32 46 -10 46 C-10 46.66 -10 47.32 -10 48 C-10.66 48 -11.32 48 -12 48 C-12.31384644 48.8038916 -12.31384644 48.8038916 -12.6340332 49.62402344 C-14.53173645 52.9249078 -17.15275857 55.37807121 -19.85546875 58.015625 C-20.43533035 58.59028503 -21.01519196 59.16494507 -21.61262512 59.75701904 C-23.4662186 61.59284019 -25.3263386 63.42185415 -27.1875 65.25 C-36.89260473 74.73359897 -36.89260473 74.73359897 -46.01196289 84.76953125 C-50.67734729 90.00383702 -55.69431613 94.919784 -60.64355469 99.88378906 C-62.63419385 101.88423917 -64.61391522 103.89511349 -66.59375 105.90625 C-67.86652913 107.18555118 -69.13994431 108.46421995 -70.4140625 109.7421875 C-71.00063629 110.34110809 -71.58721008 110.94002869 -72.19155884 111.55709839 C-75.83252489 115.17846921 -78.8808576 117.68080589 -84.17578125 118.22265625 C-88.67046875 117.88576011 -91.42021348 117.02710725 -94.76733398 113.95092773 C-95.45882538 113.31806854 -96.15031677 112.68520935 -96.86276245 112.03317261 C-100.42665162 108.64281394 -103.9368152 105.20570564 -107.41015625 101.72265625 C-108.56686073 100.56738686 -108.56686073 100.56738686 -109.74693298 99.38877869 C-111.36580153 97.77058627 -112.98342551 96.15114788 -114.59985352 94.53051758 C-117.05568718 92.06932768 -119.51681365 89.61352191 -121.97851562 87.15820312 C-123.56021653 85.57584133 -125.14160717 83.99316933 -126.72265625 82.41015625 C-127.44888687 81.68594986 -128.17511749 80.96174347 -128.9233551 80.21559143 C-144.90159931 64.16481522 -144.90159931 64.16481522 -145.125 59.25 C-142.37668158 51.31041346 -134.79782545 45.53188364 -128 41 C-121.81498315 40.39163769 -118.96983102 41.00252722 -114 45 C-112.96875 45.804375 -111.9375 46.60875 -110.875 47.4375 C-108.21348051 49.8097239 -106.21800988 52.22748765 -104 55 C-102.93360844 55.91593532 -101.84945718 56.81153061 -100.75 57.6875 C-99.8425 58.450625 -98.935 59.21375 -98 60 C-98 60.66 -98 61.32 -98 62 C-96.68 62.66 -95.36 63.32 -94 64 C-94 64.66 -94 65.32 -94 66 C-93.34 66 -92.68 66 -92 66 C-92 66.66 -92 67.32 -92 68 C-91.34 68 -90.68 68 -90 68 C-90 68.66 -90 69.32 -90 70 C-86.08936776 71.47047336 -86.08936776 71.47047336 -82 72 C-81.5903 71.10315711 -81.5903 71.10315711 -81.17232323 70.18819618 C-80.03377863 68.06304939 -78.93571173 66.68436541 -77.24282837 64.98886108 C-76.68211136 64.42250443 -76.12139435 63.85614777 -75.54368591 63.27262878 C-74.93066116 62.6636525 -74.31763641 62.05467621 -73.68603516 61.42724609 C-73.03867905 60.77638535 -72.39132294 60.1255246 -71.72434998 59.4549408 C-69.58425689 57.30604914 -67.43693509 55.16455131 -65.2890625 53.0234375 C-63.79905396 51.53208178 -62.30934243 50.04042927 -60.81991577 48.54849243 C-57.69764089 45.42326882 -54.57177667 42.30169174 -51.44335938 39.18261719 C-47.43267743 35.18332952 -43.43104004 31.17513133 -39.43204689 27.16415977 C-36.35762349 24.08251108 -33.27845448 21.00563981 -30.19782639 17.93019485 C-28.72036252 16.45406562 -27.2443842 14.97644796 -25.76991653 13.4973259 C-23.70899503 11.43132831 -21.6417758 9.37184584 -19.57275391 7.31396484 C-18.65928947 6.39442772 -18.65928947 6.39442772 -17.72737122 5.45631409 C-17.16101456 4.89559708 -16.5946579 4.33488007 -16.01113892 3.75717163 C-15.52334269 3.27012945 -15.03554646 2.78308727 -14.53296852 2.28128624 C-9.82134192 -1.65678701 -5.73875289 -1.26620171 0 0 Z " fill="#EAEFF3" transform="translate(310,195)"/>
<path d="M0 0 C5.04885564 3.02931338 8.65629405 7.96888215 10.5 13.5 C11.01350321 20.80754575 11.11608709 27.02117729 7.5 33.5 C6.84 33.5 6.18 33.5 5.5 33.5 C5.5 34.16 5.5 34.82 5.5 35.5 C4.109375 36.75390625 4.109375 36.75390625 2.25 38.0625 C1.64671875 38.49691406 1.0434375 38.93132812 0.421875 39.37890625 C-5.17443013 42.64341758 -12.25646403 42.15721431 -18.5 41.5 C-24.82626406 39.16290882 -29.74315946 34.21094036 -32.61328125 28.1484375 C-34.46336292 22.6226429 -34.42263399 16.09216534 -32.3125 10.625 C-25.62955793 -0.89731392 -12.54429555 -5.52923318 0 0 Z " fill="#F4C03C" transform="translate(349.5,147.5)"/>
<path d="M0 0 C2.475 0.495 2.475 0.495 5 1 C3.36978268 5.15060681 0.34233063 7.91164119 -2.77734375 10.97265625 C-3.344496 11.53697861 -3.91164825 12.10130096 -4.49598694 12.682724 C-6.30517145 14.48074483 -8.12118318 16.27168717 -9.9375 18.0625 C-11.15605849 19.27102121 -12.37416258 20.48000076 -13.59179688 21.68945312 C-15.82654288 23.90788361 -18.06381066 26.1236971 -20.30444336 28.33618164 C-22.20901814 30.21833139 -24.11030473 32.10295977 -26 34 C-27.32 33.34 -28.64 32.68 -30 32 C-30 31.34 -30 30.68 -30 30 C-29.01 30 -28.02 30 -27 30 C-26.67 29.01 -26.34 28.02 -26 27 C-24.68 27 -23.36 27 -22 27 C-22 26.34 -22 25.68 -22 25 C-20.35 24.34 -18.7 23.68 -17 23 C-17 22.34 -17 21.68 -17 21 C-16.01 20.34 -15.02 19.68 -14 19 C-11.59161801 15.38742702 -9.91157046 12.25399546 -9 8 C-7.88625 8.1546875 -7.88625 8.1546875 -6.75 8.3125 C-3.78460048 8.2646337 -3.78460048 8.2646337 -1.6875 5.6875 C0.26588407 3.10545093 0.26588407 3.10545093 0 0 Z " fill="#1B436E" transform="translate(252,234)"/>
<path d="M0 0 C0.33 0 0.66 0 1 0 C1 3.3 1 6.6 1 10 C1.66 10 2.32 10 3 10 C3.185625 11.2065625 3.185625 11.2065625 3.375 12.4375 C3.58125 13.283125 3.7875 14.12875 4 15 C4.66 15.33 5.32 15.66 6 16 C6.33 15.34 6.66 14.68 7 14 C7.66 14.33 8.32 14.66 9 15 C9 16.32 9 17.64 9 19 C9.66 19.33 10.32 19.66 11 20 C11.33 19.01 11.66 18.02 12 17 C14 18.25 14 18.25 16 20 C16 21.32 16 22.64 16 24 C20.21146363 26.10573182 26.55365403 25.34737757 31 24 C31.33 23.34 31.66 22.68 32 22 C33.32 22.33 34.64 22.66 36 23 C30.52401448 27.49813096 25.19495905 27.40589649 18.265625 27.34375 C12.06537567 26.69109218 8.18406754 23.52832391 4.125 19 C0.83293492 14.35237871 -0.26214112 10.87885628 -0.125 5.1875 C-0.10695313 4.21167969 -0.08890625 3.23585937 -0.0703125 2.23046875 C-0.04710937 1.49441406 -0.02390625 0.75835937 0 0 Z " fill="#E3C059" transform="translate(316,162)"/>
<path d="M0 0 C1.64574566 -0.02688151 3.29161413 -0.04634123 4.9375 -0.0625 C5.85402344 -0.07410156 6.77054688 -0.08570313 7.71484375 -0.09765625 C10 0 10 0 11 1 C11.08858646 3.73894085 11.11523479 6.4525327 11.09765625 9.19140625 C11.0962413 10.01124496 11.09482635 10.83108368 11.09336853 11.67576599 C11.08775289 14.30471382 11.07519779 16.93357773 11.0625 19.5625 C11.05748701 21.34049357 11.05292376 23.11848846 11.04882812 24.89648438 C11.03777839 29.26435545 11.02050331 33.63216348 11 38 C11.66 38.33 12.32 38.66 13 39 C13 40.98 13 42.96 13 45 C14.32 45.66 15.64 46.32 17 47 C17 47.66 17 48.32 17 49 C17.99 49 18.98 49 20 49 C20 49.66 20 50.32 20 51 C18.35 50.67 16.7 50.34 15 50 C15 49.34 15 48.68 15 48 C14.38125 47.835 13.7625 47.67 13.125 47.5 C10.32635431 45.5244854 10.11899198 43.51624048 9.3838501 40.27832031 C8.75598693 36.55167439 8.75401286 32.89539066 8.8046875 29.125 C8.8075174 28.31506592 8.81034729 27.50513184 8.81326294 26.6706543 C8.82435285 24.11361166 8.84943548 21.55693465 8.875 19 C8.8850443 17.25391135 8.8941676 15.50781715 8.90234375 13.76171875 C8.92425534 9.50767415 8.95870618 5.25389881 9 1 C6.03 1 3.06 1 0 1 C0 0.67 0 0.34 0 0 Z " fill="#0C2551" transform="translate(160,383)"/>
<path d="M0 0 C0.33 1.32 0.66 2.64 1 4 C0.38125 4.2475 -0.2375 4.495 -0.875 4.75 C-3.15001528 5.82396211 -3.15001528 5.82396211 -4 8.0625 C-5 10 -5 10 -7.125 10.75 C-8.053125 10.87375 -8.053125 10.87375 -9 11 C-9.2475 12.051875 -9.495 13.10375 -9.75 14.1875 C-10.78114111 17.83332034 -12.47121084 20.15511219 -15 23 C-15.66 23.99 -16.32 24.98 -17 26 C-15.49711542 17.62253447 -12.28117963 8.99643282 -6 3 C-5.01 3 -4.02 3 -3 3 C-3 2.34 -3 1.68 -3 1 C-2.01 0.67 -1.02 0.34 0 0 Z " fill="#114679" transform="translate(125,134)"/>
<path d="M0 0 C1.27230469 0.00902344 2.54460937 0.01804688 3.85546875 0.02734375 C5.31919922 0.04474609 5.31919922 0.04474609 6.8125 0.0625 C6.8125 0.3925 6.8125 0.7225 6.8125 1.0625 C3.73632812 1.35546875 3.73632812 1.35546875 0.66015625 1.6484375 C0.05042969 1.78507813 -0.55929687 1.92171875 -1.1875 2.0625 C-1.5175 2.7225 -1.8475 3.3825 -2.1875 4.0625 C-2.8475 4.0625 -3.5075 4.0625 -4.1875 4.0625 C-4.1875 4.7225 -4.1875 5.3825 -4.1875 6.0625 C-7.1575 6.0625 -10.1275 6.0625 -13.1875 6.0625 C-13.5175 7.3825 -13.8475 8.7025 -14.1875 10.0625 C-15.1775 10.3925 -16.1675 10.7225 -17.1875 11.0625 C-18.1775 11.5575 -18.1775 11.5575 -19.1875 12.0625 C-19.83963292 14.08713255 -19.83963292 14.08713255 -20.1875 16.0625 C-21.00506827 13.74690291 -21.41322978 12.57460337 -20.40234375 10.28125 C-14.7962513 2.73788401 -9.41612002 -0.08638642 0 0 Z " fill="#EEC349" transform="translate(338.1875,145.9375)"/>
<path d="M0 0 C0 3.75832067 -0.93607224 4.3698162 -3.4375 7.0625 C-6.02679823 9.8184536 -6.02679823 9.8184536 -8 13 C-8.99 13 -9.98 13 -11 13 C-11.226875 13.721875 -11.45375 14.44375 -11.6875 15.1875 C-13.27331875 18.58568303 -15.26123324 20.45230999 -18 23 C-18.845625 23.94875 -19.69125 24.8975 -20.5625 25.875 C-21.366875 26.57625 -22.17125 27.2775 -23 28 C-24.32 27.67 -25.64 27.34 -27 27 C-18.09 18.09 -9.18 9.18 0 0 Z " fill="#254A73" transform="translate(263,280)"/>
<path d="M0 0 C1.22589844 0.15275391 1.22589844 0.15275391 2.4765625 0.30859375 C3.41628906 0.43427734 3.41628906 0.43427734 4.375 0.5625 C3.715 1.2225 3.055 1.8825 2.375 2.5625 C1.055 2.5625 -0.265 2.5625 -1.625 2.5625 C-0.305 2.8925 1.015 3.2225 2.375 3.5625 C2.045 4.8825 1.715 6.2025 1.375 7.5625 C0.385 7.5625 -0.605 7.5625 -1.625 7.5625 C-1.625 6.9025 -1.625 6.2425 -1.625 5.5625 C-5.81860449 6.23347672 -9.02834352 8.4183394 -12.625 10.5625 C-12.955 9.2425 -13.285 7.9225 -13.625 6.5625 C-12.50220538 5.58080524 -11.37668527 4.60222702 -10.25 3.625 C-9.31027344 2.80708984 -9.31027344 2.80708984 -8.3515625 1.97265625 C-5.33057943 -0.49470775 -3.78547121 -0.48670344 0 0 Z " fill="#E6EBEE" transform="translate(305.625,194.4375)"/>
<path d="M0 0 C0 0.66 0 1.32 0 2 C-1.98 2.66 -3.96 3.32 -6 4 C-6 4.99 -6 5.98 -6 7 C-6.9590625 7.37125 -6.9590625 7.37125 -7.9375 7.75 C-10.18741541 8.81562433 -10.18741541 8.81562433 -10.75 11.125 C-10.8325 11.74375 -10.915 12.3625 -11 13 C-11.66 13 -12.32 13 -13 13 C-13.33 13.66 -13.66 14.32 -14 15 C-14.66 15 -15.32 15 -16 15 C-16.33 15.99 -16.66 16.98 -17 18 C-17.66 18 -18.32 18 -19 18 C-19.33 18.99 -19.66 19.98 -20 21 C-19.84009011 14.60360458 -16.31270553 11.27742778 -12 7 C-4.36523929 0 -4.36523929 0 0 0 Z " fill="#DAE4EF" transform="translate(185,236)"/>
<path d="M0 0 C0.99 0 1.98 0 3 0 C1.6415798 3.04332765 0.11536976 5.12309151 -2.2578125 7.453125 C-2.88300781 8.071875 -3.50820313 8.690625 -4.15234375 9.328125 C-4.80332031 9.96234375 -5.45429688 10.5965625 -6.125 11.25 C-6.78371094 11.8996875 -7.44242187 12.549375 -8.12109375 13.21875 C-9.74296643 14.81711727 -11.3693281 16.41061897 -13 18 C-13.33 17.01 -13.66 16.02 -14 15 C-13.34 15 -12.68 15 -12 15 C-11.6596875 14.2265625 -11.6596875 14.2265625 -11.3125 13.4375 C-10.16045778 11.29799302 -8.9615063 9.27737724 -7.625 7.25 C-7.02558594 6.32960937 -7.02558594 6.32960937 -6.4140625 5.390625 C-5 4 -5 4 -1 4 C-0.67 2.68 -0.34 1.36 0 0 Z " fill="#22466B" transform="translate(275,214)"/>
<path d="M0 0 C0.625 1.875 0.625 1.875 1 4 C0.34 4.66 -0.32 5.32 -1 6 C-1.99 6 -2.98 6 -4 6 C-3.896875 6.763125 -3.79375 7.52625 -3.6875 8.3125 C-4 11 -4 11 -6.1875 12.75 C-8.8363938 13.92728613 -11.14015008 14.59145001 -14 15 C-9.59156563 9.70987876 -4.92440206 4.81191572 0 0 Z " fill="#23456D" transform="translate(282,260)"/>
<path d="M0 0 C7.15801225 5.82628904 13.52591766 12.4382985 20 19 C19.34 19.66 18.68 20.32 18 21 C15.25828501 18.33661973 12.76013091 15.72423171 10.4375 12.6875 C9.633125 11.800625 8.82875 10.91375 8 10 C6.68 10 5.36 10 4 10 C3.896875 9.236875 3.79375 8.47375 3.6875 7.6875 C2.94399108 4.78105605 2.15141968 3.96433971 0 2 C0 1.34 0 0.68 0 0 Z " fill="#244466" transform="translate(181,275)"/>
<path d="M0 0 C2.5 2.5625 2.5 2.5625 4 5 C-0.75 4.125 -0.75 4.125 -3 3 C-4.70702735 2.93003986 -6.41668003 2.91559846 -8.125 2.9375 C-9.03507813 2.94652344 -9.94515625 2.95554688 -10.8828125 2.96484375 C-11.93082031 2.98224609 -11.93082031 2.98224609 -13 3 C-13 2.01 -13 1.02 -13 0 C-8.61606061 -1.23298295 -4.35679318 -1.37343585 0 0 Z " fill="#1B436D" transform="translate(193,234)"/>
<path d="M0 0 C0.99 0.33 1.98 0.66 3 1 C-1.62 5.62 -6.24 10.24 -11 15 C-11.33 14.01 -11.66 13.02 -12 12 C-11.01 11.67 -10.02 11.34 -9 11 C-8.690625 10.05125 -8.38125 9.1025 -8.0625 8.125 C-6.89898508 4.70289729 -6.12302363 3.70346743 -3 2 C-2.01 2 -1.02 2 0 2 C0 1.34 0 0.68 0 0 Z " fill="#2E5073" transform="translate(291,199)"/>
<path d="M0 0 C2.95960173 -0.24663348 4.56188094 -0.27060295 7.125 1.3125 C7.74375 1.869375 8.3625 2.42625 9 3 C9.5775 3.515625 10.155 4.03125 10.75 4.5625 C12 6 12 6 12 8 C12.66 8 13.32 8 14 8 C14 8.66 14 9.32 14 10 C15.32 10 16.64 10 18 10 C17.34 11.32 16.68 12.64 16 14 C14.5 12.625 14.5 12.625 13 11 C13 10.34 13 9.68 13 9 C12.34 9 11.68 9 11 9 C11 8.34 11 7.68 11 7 C10.34 7 9.68 7 9 7 C9 6.34 9 5.68 9 5 C8.2575 4.71125 7.515 4.4225 6.75 4.125 C4.43260203 3.17697356 2.22082885 2.15154089 0 1 C0 0.67 0 0.34 0 0 Z " fill="#284C72" transform="translate(306,193)"/>
<path d="M0 0 C0.80050781 0.12761719 1.60101563 0.25523437 2.42578125 0.38671875 C3.23402344 0.50660156 4.04226563 0.62648437 4.875 0.75 C5.48988281 0.85699219 6.10476563 0.96398437 6.73828125 1.07421875 C6.07828125 1.73421875 5.41828125 2.39421875 4.73828125 3.07421875 C3.41828125 3.07421875 2.09828125 3.07421875 0.73828125 3.07421875 C2.05828125 3.40421875 3.37828125 3.73421875 4.73828125 4.07421875 C4.40828125 5.39421875 4.07828125 6.71421875 3.73828125 8.07421875 C2.74828125 8.07421875 1.75828125 8.07421875 0.73828125 8.07421875 C0.49078125 7.43484375 0.24328125 6.79546875 -0.01171875 6.13671875 C-1.07734308 3.88680334 -1.07734308 3.88680334 -3.38671875 3.32421875 C-4.31484375 3.20046875 -4.31484375 3.20046875 -5.26171875 3.07421875 C-3.53640014 0.90221572 -2.83921072 0.09316926 0 0 Z " fill="#D6E3EB" transform="translate(303.26171875,193.92578125)"/>
<path d="M0 0 C1 2 1 2 0.4375 4 C-1.74682973 7.03906745 -3.30385062 7.29900615 -7 8 C-11.02573064 7.86135877 -15.0015541 7.47877831 -19 7 C-19 6.67 -19 6.34 -19 6 C-18.04738281 5.90203125 -17.09476562 5.8040625 -16.11328125 5.703125 C-14.85902344 5.55359375 -13.60476563 5.4040625 -12.3125 5.25 C-11.07113281 5.11078125 -9.82976562 4.9715625 -8.55078125 4.828125 C-4.71110327 3.93262254 -2.8415248 2.6730979 0 0 Z " fill="#3E555A" transform="translate(353,183)"/>
<path d="M0 0 C1.125 1.6875 1.125 1.6875 2 4 C0.95113447 8.09057558 -1.3132945 10.80953722 -4 14 C-4.66 14.99 -5.32 15.98 -6 17 C-5.37748914 13.38814009 -4.39374524 10.1995059 -3 6.8125 C-2.649375 5.95269531 -2.29875 5.09289062 -1.9375 4.20703125 C-1.33387901 2.78600684 -0.69045908 1.38091815 0 0 Z " fill="#173D66" transform="translate(114,143)"/>
<path d="M0 0 C4.06497556 3.658478 5.80317068 6.66120451 6.265625 12.15625 C6.26046875 13.2596875 6.2553125 14.363125 6.25 15.5 C6.25515625 16.6034375 6.2603125 17.706875 6.265625 18.84375 C6.00303615 21.96392334 5.32438782 24.18304814 4 27 C3.67 27 3.34 27 3 27 C3 24.69 3 22.38 3 20 C3.66 20 4.32 20 5 20 C4.74309819 17.93571843 4.46886954 15.87358906 4.1875 13.8125 C3.96126953 12.08966797 3.96126953 12.08966797 3.73046875 10.33203125 C2.99306648 6.96837279 1.85486563 4.86106672 0 2 C0 1.34 0 0.68 0 0 Z " fill="#DAC365" transform="translate(354,152)"/>
<path d="M0 0 C0.66 0.33 1.32 0.66 2 1 C2 2.98 2 4.96 2 7 C3.32 7.66 4.64 8.32 6 9 C6 9.66 6 10.32 6 11 C6.99 11 7.98 11 9 11 C9 11.66 9 12.32 9 13 C7.35 12.67 5.7 12.34 4 12 C4 11.34 4 10.68 4 10 C3.360625 9.814375 2.72125 9.62875 2.0625 9.4375 C0 8 0 8 -0.8125 4.4375 C-0.874375 3.303125 -0.93625 2.16875 -1 1 C-0.67 0.67 -0.34 0.34 0 0 Z " fill="#143A5F" transform="translate(171,421)"/>
<path d="M0 0 C1.32 0 2.64 0 4 0 C3.896875 0.86625 3.79375 1.7325 3.6875 2.625 C4.11458878 7.23755881 5.92500148 8.61750163 9 12 C9 12.66 9 13.32 9 14 C9.99 14.33 10.98 14.66 12 15 C11.01 15.495 11.01 15.495 10 16 C8 14.625 8 14.625 6 13 C6 12.34 6 11.68 6 11 C5.01 10.67 4.02 10.34 3 10 C1.54992063 7.31735316 0.88215945 5.72668339 1.375 2.6875 C1.58125 2.130625 1.7875 1.57375 2 1 C1.34 0.67 0.68 0.34 0 0 Z " fill="#23456D" transform="translate(162,251)"/>
<path d="M0 0 C0 3.75832067 -0.93607224 4.3698162 -3.4375 7.0625 C-6.02679823 9.8184536 -6.02679823 9.8184536 -8 13 C-8.99 13 -9.98 13 -11 13 C-11 13.66 -11 14.32 -11 15 C-11.66 15 -12.32 15 -13 15 C-13.33 15.66 -13.66 16.32 -14 17 C-13.4194679 13.69881206 -12.45131901 12.08865924 -10.05859375 9.765625 C-9.18364258 8.90517578 -9.18364258 8.90517578 -8.29101562 8.02734375 C-7.67935547 7.44082031 -7.06769531 6.85429687 -6.4375 6.25 C-5.82197266 5.64800781 -5.20644531 5.04601562 -4.57226562 4.42578125 C-3.05485187 2.94365619 -1.52829404 1.4709033 0 0 Z " fill="#20436A" transform="translate(263,280)"/>
<path d="M0 0 C1.32 0 2.64 0 4 0 C3 3 3 3 1 6 C0.52949219 5.66226563 0.05898438 5.32453125 -0.42578125 4.9765625 C-1.04839844 4.53054687 -1.67101562 4.08453125 -2.3125 3.625 C-2.92738281 3.18414062 -3.54226563 2.74328125 -4.17578125 2.2890625 C-5.7652392 1.16589093 -7.38062171 0.07958553 -9 -1 C-5.19402954 -2.26865682 -3.71644033 -1.28937726 0 0 Z " fill="#264862" transform="translate(354,147)"/>
<path d="M0 0 C3.98671063 1.36687222 6.88494633 3.15195093 10 6 C10 6.66 10 7.32 10 8 C10.99 8.33 11.98 8.66 13 9 C12.67 9.99 12.34 10.98 12 12 C10.2925002 10.71937515 8.62626404 9.38232443 7 8 C7 7.34 7 6.68 7 6 C6.401875 5.7525 5.80375 5.505 5.1875 5.25 C2.71352479 3.83629988 1.56629745 2.34944617 0 0 Z " fill="#305078" transform="translate(195,239)"/>
<path d="M0 0 C-1.5830577 4.2742558 -4.50568404 6.26531794 -8 9 C-8.36794764 5.68847126 -8.29809215 4.39390748 -6.25 1.6875 C-4 0 -4 0 0 0 Z " fill="#D8E2EA" transform="translate(298,243)"/>
<path d="M0 0 C1.45742463 -0.08096803 2.91612807 -0.13917774 4.375 -0.1875 C5.18710937 -0.22230469 5.99921875 -0.25710937 6.8359375 -0.29296875 C7.55007813 -0.19628906 8.26421875 -0.09960938 9 0 C9.66 0.99 10.32 1.98 11 3 C7.04 3 3.08 3 -1 3 C-0.67 2.01 -0.34 1.02 0 0 Z " fill="#3E5668" transform="translate(334,143)"/>
<path d="M0 0 C0 2 0 2 -1.57421875 3.5859375 C-2.27160156 4.17632812 -2.96898437 4.76671875 -3.6875 5.375 C-4.77611328 6.30119141 -4.77611328 6.30119141 -5.88671875 7.24609375 C-8.23449112 9.19461463 -10.59564775 11.1215998 -13 13 C-11.79618552 10.50638429 -10.54571278 8.31856917 -9 6 C-8.34 6 -7.68 6 -7 6 C-6.67 5.01 -6.34 4.02 -6 3 C-3.86928565 0.38503239 -3.5167455 0 0 0 Z " fill="#1F4067" transform="translate(179,237)"/>
<path d="M0 0 C0.99 0 1.98 0 3 0 C2.69255859 0.80050781 2.69255859 0.80050781 2.37890625 1.6171875 C0.282843 7.41395572 -0.62810501 12.85732066 -1 19 C-1.33 19 -1.66 19 -2 19 C-2.22262303 12.2718373 -1.95021536 6.46008837 0 0 Z " fill="#334A55" transform="translate(317,153)"/>
<path d="M0 0 C0.99 0 1.98 0 3 0 C2.67 1.32 2.34 2.64 2 4 C1.34 4 0.68 4 0 4 C-0.33 4.99 -0.66 5.98 -1 7 C-1.66 7 -2.32 7 -3 7 C-3.33 7.99 -3.66 8.98 -4 10 C-3.5289356 5.85463326 -3.0080208 3.0080208 0 0 Z " fill="#D1DDE8" transform="translate(169,247)"/>
<path d="M0 0 C0.66 0 1.32 0 2 0 C2 1.65 2 3.3 2 5 C1.01 5.33 0.02 5.66 -1 6 C-1.99 6.495 -1.99 6.495 -3 7 C-3.65213292 9.02463255 -3.65213292 9.02463255 -4 11 C-4.64453125 9.234375 -4.64453125 9.234375 -5 7 C-4.07421875 5.078125 -4.07421875 5.078125 -2.6875 3.25 C-2.23761719 2.63640625 -1.78773438 2.0228125 -1.32421875 1.390625 C-0.88722656 0.93171875 -0.45023437 0.4728125 0 0 Z " fill="#D3BB63" transform="translate(322,151)"/>
<path d="M0 0 C0.33 0 0.66 0 1 0 C1.36205464 1.95689037 1.71441421 3.91557668 2.0625 5.875 C2.25972656 6.96554688 2.45695312 8.05609375 2.66015625 9.1796875 C3 12 3 12 2 14 C1.01 13.67 0.02 13.34 -1 13 C-1.02686553 11.02090602 -1.04633375 9.04171029 -1.0625 7.0625 C-1.07410156 5.96035156 -1.08570313 4.85820312 -1.09765625 3.72265625 C-1 1 -1 1 0 0 Z " fill="#1A4269" transform="translate(323,205)"/>
<path d="M0 0 C1.98 0.495 1.98 0.495 4 1 C4 2.32 4 3.64 4 5 C3.34 5 2.68 5 2 5 C1.67 5.66 1.34 6.32 1 7 C1 6.34 1 5.68 1 5 C0.34 5 -0.32 5 -1 5 C-0.67 3.35 -0.34 1.7 0 0 Z " fill="#11416F" transform="translate(379,357)"/>
<path d="M0 0 C1.13199353 0.9080162 2.25532363 1.82683826 3.375 2.75 C4.00148437 3.26046875 4.62796875 3.7709375 5.2734375 4.296875 C7.08312318 6.08199481 8.00117455 7.67949644 9 10 C7.35 10 5.7 10 4 10 C3.896875 9.236875 3.79375 8.47375 3.6875 7.6875 C2.94399108 4.78105605 2.15141968 3.96433971 0 2 C0 1.34 0 0.68 0 0 Z " fill="#183E62" transform="translate(181,275)"/>
<path d="M0 0 C0.721875 0.268125 1.44375 0.53625 2.1875 0.8125 C-0.00886905 3.00886905 -2.05010649 4.39761552 -4.8125 5.8125 C-5.8025 5.4825 -6.7925 5.1525 -7.8125 4.8125 C-3.50480769 -0.23365385 -3.50480769 -0.23365385 0 0 Z " fill="#2A5179" transform="translate(275.8125,269.1875)"/>
<path d="M0 0 C0.86625 0.3403125 0.86625 0.3403125 1.75 0.6875 C1.75 1.3475 1.75 2.0075 1.75 2.6875 C1.09 2.6875 0.43 2.6875 -0.25 2.6875 C-0.25 3.3475 -0.25 4.0075 -0.25 4.6875 C-2.23 4.0275 -4.21 3.3675 -6.25 2.6875 C-2.80384615 -0.38942308 -2.80384615 -0.38942308 0 0 Z " fill="#14416D" transform="translate(142.25,121.3125)"/>
<path d="M0 0 C0.99 0.33 1.98 0.66 3 1 C2.01 1.66 1.02 2.32 0 3 C-0.33 3.99 -0.66 4.98 -1 6 C-4.0625 7.1875 -4.0625 7.1875 -7 8 C-6.21366078 6.85050412 -5.42073742 5.70551011 -4.625 4.5625 C-4.18414062 3.92441406 -3.74328125 3.28632813 -3.2890625 2.62890625 C-2 1 -2 1 0 0 Z " fill="#1F406A" transform="translate(300,242)"/>
<path d="M0 0 C0.97608217 2.92824652 1.08226668 4.95613276 1 8 C0.34 8 -0.32 8 -1 8 C-1 7.34 -1 6.68 -1 6 C-1.66 6 -2.32 6 -3 6 C-3 5.34 -3 4.68 -3 4 C-3.66 3.67 -4.32 3.34 -5 3 C-3.68 3 -2.36 3 -1 3 C-0.67 2.01 -0.34 1.02 0 0 Z " fill="#274E79" transform="translate(221,257)"/>
<path d="M0 0 C0.33 0.66 0.66 1.32 1 2 C1.66 2 2.32 2 3 2 C3.66 3.65 4.32 5.3 5 7 C3.68 7.33 2.36 7.66 1 8 C0.17361624 5.10765685 0 3.11257569 0 0 Z " fill="#143C60" transform="translate(380,136)"/>
<path d="M0 0 C1.32 0 2.64 0 4 0 C4 0.66 4 1.32 4 2 C-0.15267176 5.11450382 -0.15267176 5.11450382 -3.3125 4.6875 C-3.869375 4.460625 -4.42625 4.23375 -5 4 C-4.01 3.67 -3.02 3.34 -2 3 C-1.34 2.01 -0.68 1.02 0 0 Z " fill="#144066" transform="translate(188,429)"/>
<path d="M0 0 C0.66 0 1.32 0 2 0 C3.6875 1.8125 3.6875 1.8125 5 4 C4.67 4.99 4.34 5.98 4 7 C2.68 6.67 1.36 6.34 0 6 C0.33 5.01 0.66 4.02 1 3 C0.67 2.01 0.34 1.02 0 0 Z " fill="#E0EBF0" transform="translate(200,245)"/>
<path d="M0 0 C0 3.57575896 -1.08840607 5.05295935 -3 8 C-3.99 7.34 -4.98 6.68 -6 6 C-4.02 4.02 -2.04 2.04 0 0 Z " fill="#325579" transform="translate(314,227)"/>
<path d="M0 0 C-0.33 0.99 -0.66 1.98 -1 3 C-4.0625 4.1875 -4.0625 4.1875 -7 5 C-5.22678182 1.07358831 -4.52021524 0 0 0 Z " fill="#E2C057" transform="translate(331,147)"/>
<path d="M0 0 C0.99 0.33 1.98 0.66 3 1 C0.6875 3.0625 0.6875 3.0625 -2 5 C-2.99 4.67 -3.98 4.34 -5 4 C-4.01 3.67 -3.02 3.34 -2 3 C-2 2.34 -2 1.68 -2 1 C-1.34 0.67 -0.68 0.34 0 0 Z " fill="#183A5C" transform="translate(370,370)"/>
<path d="M0 0 C1.98 1.65 3.96 3.3 6 5 C5.34 5.66 4.68 6.32 4 7 C2 5.75 2 5.75 0 4 C0 2.68 0 1.36 0 0 Z " fill="#2B4E70" transform="translate(201,295)"/>
</svg>
